<svg width="400" height="400" viewBox="0 0 400 400" fill="none" xmlns="http://www.w3.org/2000/svg">
  <defs>
    <linearGradient id="bg" x1="40" y1="20" x2="360" y2="380" gradientUnits="userSpaceOnUse">
      <stop stop-color="#1E293B"/>
      <stop offset="1" stop-color="#0B1020"/>
    </linearGradient>
    <radialGradient id="orb" cx="0" cy="0" r="1" gradientUnits="userSpaceOnUse" gradientTransform="translate(204 173) rotate(90) scale(114)">
      <stop stop-color="#7DD3FC"/>
      <stop offset="1" stop-color="#0EA5E9" stop-opacity="0.25"/>
    </radialGradient>
    <linearGradient id="horizon" x1="60" y1="300" x2="340" y2="300" gradientUnits="userSpaceOnUse">
      <stop stop-color="#67E8F9"/>
      <stop offset="1" stop-color="#22D3EE"/>
    </linearGradient>
  </defs>
  <rect width="400" height="400" rx="28" fill="url(#bg)"/>
  <circle cx="204" cy="173" r="114" fill="url(#orb)"/>
  <path d="M70 292C122 266 174 266 226 292C271 314 311 314 332 299" stroke="url(#horizon)" stroke-width="6" stroke-linecap="round"/>
  <path d="M58 326C116 298 174 298 232 326C276 346 317 346 342 331" stroke="#67E8F9" stroke-opacity=".6" stroke-width="4" stroke-linecap="round"/>
  <circle cx="123" cy="116" r="8" fill="#A5F3FC"/>
  <circle cx="296" cy="99" r="6" fill="#67E8F9"/>
  <circle cx="284" cy="248" r="5" fill="#22D3EE"/>
  <rect x="52" y="332" width="296" height="18" rx="9" fill="#22D3EE" fill-opacity=".25"/>
</svg>
